Coordinates
version=1
nRows=23
nColumns=30
inDegrees=yes

Units are S.I. units (second, meters, Newtons, ...)
Angles are in degrees.

endheader
time	floatyaw	floatroll	floatpitch	floatx	floaty	floatz	pro_sup_l	deviation_l	flexion_l	cmc_flexion_l	cmc_abduction_l	mp_flexion_l	ip_flexion_l	2mcp_flexion_l	2mcp_abduction_l	2pm_flexion_l	2md_flexion_l	3mcp_flexion_l	3mcp_abduction_l	3pm_flexion_l	3md_flexion_l	4mcp_flexion_l	4mcp_abduction_l	4pm_flexion_l	4md_flexion_l	5mcp_flexion_l	5mcp_abduction_l	5pm_flexion_l	5md_flexion_l
-1.495000	-160.147433	-5.066637	-73.570646	0.082511	-0.182669	-0.015278	99.533272	4.537701	0.008468	16.243841	10.362988	-25.535466	-42.388282	29.054560	6.429089	42.839455	29.099537	24.176142	4.004524	43.045674	28.222913	12.690127	-4.120127	51.154044	34.815494	0.704126	-7.913456	59.437194	41.611499
-1.485000	-160.147433	-5.066637	-73.570646	0.082506	-0.182673	-0.015279	99.512210	4.528345	0.005550	16.204400	10.385004	-25.542387	-42.423823	29.087191	6.424393	42.838905	29.083464	24.187365	4.007914	43.038291	28.206189	12.706396	-4.119868	51.133107	34.799679	0.705079	-7.913180	59.431373	41.603275
-1.475000	-160.147433	-5.066637	-73.570646	0.082504	-0.182676	-0.015284	99.498203	4.519773	0.003410	16.168324	10.382984	-25.559144	-42.472783	29.112897	6.420774	42.839737	29.061249	24.200577	4.011490	43.021115	28.180869	12.721800	-4.117574	51.108144	34.777663	0.704860	-7.908161	59.421228	41.588968
-1.465000	-160.147433	-5.066637	-73.570646	0.082505	-0.182677	-0.015291	99.499668	4.516757	0.002341	16.140761	10.358478	-25.583603	-42.525619	29.124074	6.418768	42.845096	29.040909	24.211635	4.014030	43.000228	28.154588	12.734419	-4.113333	51.082426	34.752704	0.705753	-7.899360	59.408463	41.571183
-1.455000	-160.147433	-5.066637	-73.570646	0.082508	-0.182675	-0.015298	99.517478	4.520730	0.002366	16.122876	10.323635	-25.609738	-42.570515	29.116953	6.418816	42.859766	29.031714	24.217396	4.014785	42.984255	28.136267	12.742473	-4.107674	51.060922	34.730094	0.710125	-7.889821	59.396603	41.554576
-1.445000	-160.147433	-5.066637	-73.570646	0.082511	-0.182672	-0.015303	99.544939	4.529279	0.003169	16.112280	10.295664	-25.629584	-42.596682	29.093262	6.421469	42.887372	29.040374	24.217081	4.013870	42.980850	28.132678	12.744821	-4.101249	51.048763	34.715168	0.719368	-7.883434	59.390384	41.544248
-1.435000	-160.147433	-5.066637	-73.570646	0.082513	-0.182667	-0.015305	99.571372	4.537651	0.004208	16.104731	10.288500	-25.637145	-42.598570	29.059705	6.427179	42.927432	29.067765	24.212426	4.012126	42.993110	28.145535	12.741464	-4.094681	51.049099	34.711046	0.732781	-7.883308	59.394401	41.543858
-1.425000	-160.147433	-5.066637	-73.570646	0.082511	-0.182663	-0.015305	99.587519	4.541470	0.005043	16.096309	10.306623	-25.631934	-42.578542	29.025082	6.435750	42.974425	29.108008	24.206278	4.010596	43.018083	28.170661	12.733545	-4.088645	51.061686	34.717329	0.747196	-7.890471	59.411401	41.554206
-1.415000	-160.147433	-5.066637	-73.570646	0.082506	-0.182662	-0.015304	99.589852	4.539061	0.005669	16.084958	10.344747	-25.619567	-42.546159	28.996714	6.445916	43.019717	29.150493	24.200615	4.010078	43.048370	28.199751	12.722828	-4.084071	51.083108	34.730335	0.757960	-7.903394	59.440988	41.572837
-1.405000	-160.147433	-5.066637	-73.570646	0.082499	-0.182662	-0.015304	99.581427	4.532001	0.006551	16.070729	10.393040	-25.608890	-42.514413	28.978364	6.455438	43.055422	29.183978	24.195436	4.010998	43.075964	28.223933	12.711091	-4.082166	51.108507	34.744820	0.760882	-7.918493	59.479440	41.594929
-1.395000	-160.147433	-5.066637	-73.570646	0.082491	-0.182663	-0.015306	99.569012	4.523688	0.008282	16.054862	10.443877	-25.607569	-42.494889	28.970492	6.461734	43.078192	29.201107	24.189255	4.013430	43.096141	28.237478	12.699725	-4.084008	51.133780	34.756387	0.754011	-7.931434	59.520735	41.615185
-1.385000	-160.147433	-5.066637	-73.570646	0.082483	-0.182663	-0.015310	99.558549	4.517003	0.011109	16.038511	10.495595	-25.618792	-42.493974	28.971763	6.462829	43.090836	29.201404	24.180544	4.017048	43.109272	28.240020	12.689586	-4.089804	51.156956	34.763382	0.738372	-7.938767	59.558227	41.629837
-1.375000	-160.147433	-5.066637	-73.570646	0.082475	-0.182663	-0.015315	99.551955	4.512691	0.014722	16.021932	10.551262	-25.640677	-42.511335	28.980125	6.458228	43.100552	29.191203	24.168957	4.021024	43.119732	28.236212	12.681048	-4.098295	51.177938	34.767135	0.717531	-7.939172	59.586209	41.637662
-1.365000	-160.147433	-5.066637	-73.570646	0.082466	-0.182661	-0.015319	99.547106	4.509414	0.018520	16.004582	10.614098	-25.668151	-42.540963	28.992912	6.449266	43.114398	29.180209	24.155619	4.024134	43.132661	28.232949	12.674224	-4.106939	51.196938	34.770329	0.696333	-7.933617	59.600957	41.639538
-1.355000	-160.147433	-5.066637	-73.570646	0.082457	-0.182660	-0.015322	99.540551	4.505235	0.022124	15.985901	10.683228	-25.695810	-42.574197	29.006766	6.438678	43.134604	29.176330	24.142586	4.025175	43.150579	28.235566	12.669265	-4.112980	51.212974	34.774627	0.679275	-7.924392	59.601269	41.637076
-1.345000	-160.147433	-5.066637	-73.570646	0.082448	-0.182659	-0.015323	99.530834	4.499362	0.025670	15.966150	10.752886	-25.720011	-42.603442	29.018388	6.429553	43.156834	29.181641	24.132074	4.023569	43.171871	28.245083	12.666585	-4.114804	51.223802	34.779330	0.669229	-7.913742	59.588686	41.631410
-1.335000	-160.147433	-5.066637	-73.570646	0.082440	-0.182657	-0.015321	99.520215	4.492974	0.029560	15.946654	10.815439	-25.739287	-42.624996	29.026048	6.424187	43.172680	29.191697	24.125897	4.019739	43.191941	28.257946	12.666862	-4.112673	51.227431	34.781994	0.667058	-7.903075	59.567449	41.622944
-1.325000	-160.147433	-5.066637	-73.570646	0.082433	-0.182653	-0.015319	99.513707	4.488586	0.033856	15.929122	10.865742	-25.753453	-42.639749	29.030710	6.423404	43.174766	29.198387	24.125170	4.014964	43.206155	28.268231	12.670796	-4.108380	51.223990	34.780427	0.672096	-7.893066	59.543890	41.612035
-1.315000	-160.147433	-5.066637	-73.570646	0.082429	-0.182645	-0.015315	99.515983	4.488390	0.037845	15.914266	10.903394	-25.762580	-42.651609	29.035624	6.426604	43.161160	29.194498	24.130114	4.010767	43.212693	28.270980	12.678673	-4.104187	51.216415	34.774524	0.682845	-7.884291	59.524903	41.599802
-1.305000	-160.147433	-5.066637	-73.570646	0.082426	-0.182634	-0.015312	99.528178	4.492629	0.040181	15.900706	10.931259	-25.766835	-42.664760	29.044349	6.432385	43.136563	29.177502	24.139884	4.008216	43.213626	28.264834	12.689949	-4.101746	51.209361	34.766660	0.697453	-7.877740	59.515612	41.588165
-1.295000	-160.147433	-5.066637	-73.570646	0.082423	-0.182623	-0.015311	99.546951	4.499269	0.039564	15.885394	10.951642	-25.767128	-42.681393	29.058395	6.439293	43.109986	29.150721	24.152586	4.007550	43.213666	28.252575	12.703043	-4.101548	51.207069	34.760459	0.713957	-7.874749	59.517196	41.578892
-1.285000	-160.147433	-5.066637	-73.570646	0.082418	-0.182613	-0.015313	99.566705	4.505318	0.035534	15.865733	10.963376	-25.765649	-42.700981	29.075938	6.446265	43.090632	29.121564	24.165570	4.008310	43.217428	28.239431	12.715489	-4.103022	51.211618	34.758884	0.730452	-7.876313	59.526294	41.572451
-1.275000	-160.147433	-5.066637	-73.570646	0.082413	-0.182606	-0.015318	99.583326	4.508904	0.028886	15.841857	10.962315	-25.765436	-42.721004	29.092437	6.452666	43.084241	29.097982	24.175946	4.009807	43.226979	28.230255	12.724443	-4.105074	51.222600	34.762893	0.745233	-7.882186	59.536763	41.567775
